<mxfile host="app.diagrams.net" modified="2021-04-12T08:54:57.972Z" agent="5.0 (Windows NT 10.0; Win64; x64) AppleWebKit/537.36 (KHTML, like Gecko) Chrome/89.0.4389.114 Safari/537.36" etag="-fYMY9B8GdiusDEnfRSx" version="14.5.10" type="github">
  <diagram id="kgpKYQtTHZ0yAKxKKP6v" name="Page-1">
    <mxGraphModel dx="782" dy="482" grid="1" gridSize="10" guides="1" tooltips="1" connect="1" arrows="1" fold="1" page="1" pageScale="1" pageWidth="850" pageHeight="1100" math="0" shadow="0">
      <root>
        <mxCell id="0" />
        <mxCell id="1" parent="0" />
        <mxCell id="3nuBFxr9cyL0pnOWT2aG-5" value=":Client" style="shape=umlLifeline;perimeter=lifelinePerimeter;container=1;collapsible=0;recursiveResize=0;rounded=0;shadow=0;strokeWidth=1;" parent="1" vertex="1">
          <mxGeometry x="300" y="80" width="100" height="420" as="geometry" />
        </mxCell>
        <mxCell id="GO8Yz7EAW44c65aMeC1f-1" value=":Player" style="shape=umlActor;verticalLabelPosition=bottom;verticalAlign=top;html=1;outlineConnect=0;" vertex="1" parent="1">
          <mxGeometry x="150" y="80" width="30" height="40" as="geometry" />
        </mxCell>
        <mxCell id="GO8Yz7EAW44c65aMeC1f-2" value="" style="endArrow=none;dashed=1;html=1;" edge="1" parent="1" target="GO8Yz7EAW44c65aMeC1f-1">
          <mxGeometry width="50" height="50" relative="1" as="geometry">
            <mxPoint x="160" y="490" as="sourcePoint" />
            <mxPoint x="160" y="140" as="targetPoint" />
          </mxGeometry>
        </mxCell>
        <mxCell id="GO8Yz7EAW44c65aMeC1f-3" value="" style="rounded=0;whiteSpace=wrap;html=1;" vertex="1" parent="1">
          <mxGeometry x="480" y="80" width="120" height="40" as="geometry" />
        </mxCell>
        <mxCell id="GO8Yz7EAW44c65aMeC1f-4" value=":Server" style="text;html=1;strokeColor=none;fillColor=none;align=center;verticalAlign=middle;whiteSpace=wrap;rounded=0;" vertex="1" parent="1">
          <mxGeometry x="520" y="90" width="40" height="20" as="geometry" />
        </mxCell>
        <mxCell id="GO8Yz7EAW44c65aMeC1f-6" value="" style="endArrow=none;dashed=1;html=1;entryX=0.5;entryY=1;entryDx=0;entryDy=0;" edge="1" parent="1" target="GO8Yz7EAW44c65aMeC1f-3">
          <mxGeometry width="50" height="50" relative="1" as="geometry">
            <mxPoint x="540" y="480" as="sourcePoint" />
            <mxPoint x="430" y="230" as="targetPoint" />
          </mxGeometry>
        </mxCell>
        <mxCell id="GO8Yz7EAW44c65aMeC1f-7" value="" style="endArrow=classic;html=1;entryX=0.5;entryY=0.236;entryDx=0;entryDy=0;entryPerimeter=0;" edge="1" parent="1" target="3nuBFxr9cyL0pnOWT2aG-5">
          <mxGeometry width="50" height="50" relative="1" as="geometry">
            <mxPoint x="160" y="180" as="sourcePoint" />
            <mxPoint x="210" y="130" as="targetPoint" />
          </mxGeometry>
        </mxCell>
        <mxCell id="GO8Yz7EAW44c65aMeC1f-8" value="New Game" style="text;html=1;strokeColor=none;fillColor=none;align=center;verticalAlign=middle;whiteSpace=wrap;rounded=0;" vertex="1" parent="1">
          <mxGeometry x="230" y="160" width="40" height="20" as="geometry" />
        </mxCell>
        <mxCell id="GO8Yz7EAW44c65aMeC1f-9" value="" style="endArrow=classic;html=1;" edge="1" parent="1">
          <mxGeometry width="50" height="50" relative="1" as="geometry">
            <mxPoint x="350" y="195" as="sourcePoint" />
            <mxPoint x="540" y="195" as="targetPoint" />
          </mxGeometry>
        </mxCell>
        <mxCell id="GO8Yz7EAW44c65aMeC1f-11" value="Request ID" style="text;html=1;strokeColor=none;fillColor=none;align=center;verticalAlign=middle;whiteSpace=wrap;rounded=0;" vertex="1" parent="1">
          <mxGeometry x="420" y="180" width="40" height="20" as="geometry" />
        </mxCell>
        <mxCell id="GO8Yz7EAW44c65aMeC1f-14" value="return" style="html=1;verticalAlign=bottom;endArrow=open;dashed=1;endSize=8;startArrow=none;" edge="1" parent="1" source="GO8Yz7EAW44c65aMeC1f-15">
          <mxGeometry relative="1" as="geometry">
            <mxPoint x="535.25" y="240" as="sourcePoint" />
            <mxPoint x="344.75" y="230" as="targetPoint" />
          </mxGeometry>
        </mxCell>
        <mxCell id="GO8Yz7EAW44c65aMeC1f-15" value="Give ID" style="text;html=1;strokeColor=none;fillColor=none;align=center;verticalAlign=middle;whiteSpace=wrap;rounded=0;" vertex="1" parent="1">
          <mxGeometry x="420.25" y="220" width="40" height="20" as="geometry" />
        </mxCell>
        <mxCell id="GO8Yz7EAW44c65aMeC1f-16" value="" style="html=1;verticalAlign=bottom;endArrow=none;dashed=1;endSize=8;" edge="1" parent="1" target="GO8Yz7EAW44c65aMeC1f-15">
          <mxGeometry relative="1" as="geometry">
            <mxPoint x="535.25" y="230" as="sourcePoint" />
            <mxPoint x="344.75" y="240" as="targetPoint" />
          </mxGeometry>
        </mxCell>
        <mxCell id="GO8Yz7EAW44c65aMeC1f-17" value="" style="endArrow=classic;html=1;startArrow=none;" edge="1" parent="1" source="GO8Yz7EAW44c65aMeC1f-19">
          <mxGeometry width="50" height="50" relative="1" as="geometry">
            <mxPoint x="350" y="250" as="sourcePoint" />
            <mxPoint x="160" y="250" as="targetPoint" />
          </mxGeometry>
        </mxCell>
        <mxCell id="GO8Yz7EAW44c65aMeC1f-19" value="Ask Name" style="text;html=1;strokeColor=none;fillColor=none;align=center;verticalAlign=middle;whiteSpace=wrap;rounded=0;" vertex="1" parent="1">
          <mxGeometry x="230" y="240" width="40" height="20" as="geometry" />
        </mxCell>
        <mxCell id="GO8Yz7EAW44c65aMeC1f-22" value="" style="endArrow=none;html=1;" edge="1" parent="1" target="GO8Yz7EAW44c65aMeC1f-19">
          <mxGeometry width="50" height="50" relative="1" as="geometry">
            <mxPoint x="350" y="250" as="sourcePoint" />
            <mxPoint x="160" y="250" as="targetPoint" />
          </mxGeometry>
        </mxCell>
        <mxCell id="GO8Yz7EAW44c65aMeC1f-26" value="Use" style="endArrow=open;endSize=12;dashed=1;html=1;entryX=0.44;entryY=0.493;entryDx=0;entryDy=0;entryPerimeter=0;startArrow=none;" edge="1" parent="1" source="GO8Yz7EAW44c65aMeC1f-27" target="3nuBFxr9cyL0pnOWT2aG-5">
          <mxGeometry width="160" relative="1" as="geometry">
            <mxPoint x="160" y="289.5" as="sourcePoint" />
            <mxPoint x="320" y="289.5" as="targetPoint" />
          </mxGeometry>
        </mxCell>
        <mxCell id="GO8Yz7EAW44c65aMeC1f-27" value="Enter Name" style="text;html=1;strokeColor=none;fillColor=none;align=center;verticalAlign=middle;whiteSpace=wrap;rounded=0;" vertex="1" parent="1">
          <mxGeometry x="230" y="280" width="40" height="20" as="geometry" />
        </mxCell>
        <mxCell id="GO8Yz7EAW44c65aMeC1f-28" value="" style="endArrow=none;endSize=12;dashed=1;html=1;entryX=0.44;entryY=0.493;entryDx=0;entryDy=0;entryPerimeter=0;" edge="1" parent="1" target="GO8Yz7EAW44c65aMeC1f-27">
          <mxGeometry width="160" relative="1" as="geometry">
            <mxPoint x="160" y="289.5" as="sourcePoint" />
            <mxPoint x="344" y="287.05999999999995" as="targetPoint" />
          </mxGeometry>
        </mxCell>
        <mxCell id="GO8Yz7EAW44c65aMeC1f-30" value="" style="endArrow=classic;html=1;" edge="1" parent="1">
          <mxGeometry width="50" height="50" relative="1" as="geometry">
            <mxPoint x="350" y="310" as="sourcePoint" />
            <mxPoint x="540" y="310" as="targetPoint" />
          </mxGeometry>
        </mxCell>
        <mxCell id="GO8Yz7EAW44c65aMeC1f-32" value="Ask Turn" style="text;html=1;strokeColor=none;fillColor=none;align=center;verticalAlign=middle;whiteSpace=wrap;rounded=0;" vertex="1" parent="1">
          <mxGeometry x="420" y="290" width="40" height="20" as="geometry" />
        </mxCell>
        <mxCell id="GO8Yz7EAW44c65aMeC1f-33" value="" style="endArrow=classic;html=1;entryX=0.43;entryY=0.619;entryDx=0;entryDy=0;entryPerimeter=0;" edge="1" parent="1" target="3nuBFxr9cyL0pnOWT2aG-5">
          <mxGeometry width="50" height="50" relative="1" as="geometry">
            <mxPoint x="540" y="340" as="sourcePoint" />
            <mxPoint x="590" y="290" as="targetPoint" />
          </mxGeometry>
        </mxCell>
        <mxCell id="GO8Yz7EAW44c65aMeC1f-34" value="Grant Turn" style="text;html=1;strokeColor=none;fillColor=none;align=center;verticalAlign=middle;whiteSpace=wrap;rounded=0;" vertex="1" parent="1">
          <mxGeometry x="420" y="340" width="40" height="20" as="geometry" />
        </mxCell>
        <mxCell id="GO8Yz7EAW44c65aMeC1f-36" value="" style="endArrow=classic;html=1;startArrow=none;" edge="1" parent="1" source="GO8Yz7EAW44c65aMeC1f-37">
          <mxGeometry width="50" height="50" relative="1" as="geometry">
            <mxPoint x="350" y="360" as="sourcePoint" />
            <mxPoint x="160" y="360" as="targetPoint" />
          </mxGeometry>
        </mxCell>
        <mxCell id="GO8Yz7EAW44c65aMeC1f-37" value="Your Turn" style="text;html=1;strokeColor=none;fillColor=none;align=center;verticalAlign=middle;whiteSpace=wrap;rounded=0;" vertex="1" parent="1">
          <mxGeometry x="230" y="350" width="40" height="20" as="geometry" />
        </mxCell>
        <mxCell id="GO8Yz7EAW44c65aMeC1f-38" value="" style="endArrow=none;html=1;" edge="1" parent="1" target="GO8Yz7EAW44c65aMeC1f-37">
          <mxGeometry width="50" height="50" relative="1" as="geometry">
            <mxPoint x="350" y="360" as="sourcePoint" />
            <mxPoint x="160" y="360" as="targetPoint" />
          </mxGeometry>
        </mxCell>
        <mxCell id="GO8Yz7EAW44c65aMeC1f-41" value="Turn" style="shape=umlFrame;whiteSpace=wrap;html=1;" vertex="1" parent="1">
          <mxGeometry x="90" y="320" width="580" height="200" as="geometry" />
        </mxCell>
        <mxCell id="GO8Yz7EAW44c65aMeC1f-42" value="" style="endArrow=none;dashed=1;html=1;entryX=-0.007;entryY=0.495;entryDx=0;entryDy=0;entryPerimeter=0;exitX=1;exitY=0.48;exitDx=0;exitDy=0;exitPerimeter=0;" edge="1" parent="1" source="GO8Yz7EAW44c65aMeC1f-41" target="GO8Yz7EAW44c65aMeC1f-41">
          <mxGeometry width="50" height="50" relative="1" as="geometry">
            <mxPoint x="320" y="445" as="sourcePoint" />
            <mxPoint x="370" y="395" as="targetPoint" />
          </mxGeometry>
        </mxCell>
      </root>
    </mxGraphModel>
  </diagram>
</mxfile>
